<?xml version="1.0" encoding="UTF-8" standalone="no"?>
<!-- Created with Inkscape (http://www.inkscape.org/) -->

<svg
   width="100%"
   height="100%"
   viewBox="0 0 135.46666 135.46666"
   version="1.1"
   id="svg1"
   xmlns="http://www.w3.org/2000/svg"
   xmlns:xlink="http://www.w3.org/1999/xlink">
  <defs
     id="defs1">
    <linearGradient
       id="linearGradient46">
      <stop
         style="stop-color:#000000;stop-opacity:1;"
         offset="0"
         id="stop46" />
      <stop
         style="stop-color:#000000;stop-opacity:0;"
         offset="1"
         id="stop47" />
    </linearGradient>
    <linearGradient
       id="linearGradient41">
      <stop
         style="stop-color:#000000;stop-opacity:1;"
         offset="0"
         id="stop41" />
      <stop
         style="stop-color:#000000;stop-opacity:0;"
         offset="1"
         id="stop42" />
    </linearGradient>
    <linearGradient
       id="linearGradient38">
      <stop
         style="stop-color:#000000;stop-opacity:1;"
         offset="0"
         id="stop38" />
      <stop
         style="stop-color:#808080;stop-opacity:1"
         offset="1"
         id="stop39" />
    </linearGradient>
    <linearGradient
       xlink:href="#linearGradient41"
       id="linearGradient42"
       x1="819.49579"
       y1="256.67709"
       x2="1499.2833"
       y2="130.11348"
       gradientUnits="userSpaceOnUse"
       gradientTransform="matrix(0.13369943,0,0,0.13745671,44.928686,-190.58498)" />
    <linearGradient
       xlink:href="#linearGradient38"
       id="linearGradient44"
       x1="173.69914"
       y1="524.02905"
       x2="1060.9315"
       y2="267.49371"
       gradientUnits="userSpaceOnUse"
       gradientTransform="matrix(0.12879717,0,0,0.13434694,51.735103,-220.62757)" />
    <linearGradient
       xlink:href="#linearGradient46"
       id="linearGradient47"
       x1="817.94537"
       y1="251.45711"
       x2="1626.3732"
       y2="106.12924"
       gradientUnits="userSpaceOnUse" />
  </defs>
  <g
     id="layer1"
     transform="matrix(1.0380618,0,0,1.0231474,-52.846007,223.61955)">
    <path
       id="path1"
       style="fill:#000000;stroke:none;stroke-width:0.0359379"
       d="m 57.251259,-192.21602 c -0.719085,-0.008 -1.209879,0.003 -1.580321,0.0233 0.0061,0.0374 0.01161,0.0749 0.01472,0.11252 0.0083,0.0299 0.01914,0.0589 0.02446,0.0895 0.0032,0.0214 0.0053,0.0428 0.007,0.0643 0.625763,0.10617 1.633437,0.23422 3.154423,0.39878 2.118282,0.22918 6.389584,0.64429 10.221061,1.4588 1.899906,0.40403 3.989736,0.96004 6.008437,1.81566 1.696847,0.71992 3.40712,1.67796 4.893997,2.96222 1.765254,1.52244 3.299586,3.47673 4.317641,5.72594 0.427583,0.94466 0.753436,1.91775 0.970586,2.90474 0.818578,3.63922 0.251727,7.3831 -0.758199,10.53202 -0.57739,1.78492 -1.307141,3.38412 -2.184661,4.79308 -0.875253,1.40816 -1.892157,2.61081 -2.904865,3.61074 -1.900421,1.88124 -4.318506,3.52566 -5.479201,4.33661 -1.369527,0.95686 -2.117036,1.50729 -2.067066,1.58872 0.04997,0.0814 0.88887,-0.30998 2.355384,-1.13119 1.296934,-0.72625 3.741442,-2.15865 5.86832,-4.08091 1.105405,-1.00161 2.222099,-2.23092 3.198919,-3.70236 0.974801,-1.47108 1.791514,-3.14616 2.431796,-5.01008 1.136423,-3.28262 1.772168,-7.2519 0.914348,-11.23738 -0.238384,-1.08494 -0.593922,-2.15101 -1.059918,-3.18234 -1.111828,-2.46067 -2.779148,-4.56569 -4.706765,-6.19306 -1.642039,-1.38454 -3.484759,-2.38852 -5.294035,-3.11421 -2.148488,-0.86253 -4.322727,-1.38856 -6.282591,-1.74293 -4.065079,-0.73522 -8.146103,-0.92131 -10.39814,-0.98742 -0.624617,-0.0183 -1.181372,-0.0299 -1.665302,-0.0351 z" />
    <path
       id="path2"
       style="fill:#000000;stroke:none;stroke-width:0.0363863"
       d="m 71.94873,-151.38108 c -0.02296,0.003 -0.03751,0.0117 -0.04346,0.0238 -0.04754,0.0973 0.463419,0.46084 1.418578,1.06741 0.793324,0.50379 2.521162,1.5516 3.881468,2.73313 1.528429,1.31934 3.072883,3.21992 4.139662,5.75309 1.036196,2.472 1.779047,5.48151 1.540523,8.60191 -0.111632,1.4984 -0.451426,3.02495 -1.055987,4.47421 -0.211767,0.51011 -0.456904,1.01095 -0.733056,1.50035 -0.573074,1.01563 -1.262573,1.95131 -2.023817,2.79343 -1.281633,1.41886 -2.791517,2.56571 -4.338644,3.47556 -1.793699,1.05509 -3.700305,1.82882 -5.46628,2.43508 -3.589369,1.23198 -7.768124,2.13539 -9.809899,2.6118 -1.664908,0.38848 -2.791626,0.6834 -3.346081,0.88635 0.01205,0.0359 0.02146,0.0727 0.02916,0.10988 0.0072,0.0379 0.01115,0.0763 0.01382,0.11486 4.78e-4,0.002 5.33e-4,0.003 9.02e-4,0.005 0.0015,0.003 0.0029,0.007 0.0054,0.0136 -2.19e-4,-10e-4 -0.0015,-0.004 -6.98e-4,-0.003 0.0073,0.007 0.01758,0.0301 0.02639,0.0523 0.597071,0.009 1.74378,-0.082 3.42526,-0.28712 2.239346,-0.27317 6.206345,-0.84584 10.120877,-2.01861 1.856393,-0.55616 3.882494,-1.31334 5.845453,-2.40914 1.6974,-0.94783 3.366726,-2.18336 4.813023,-3.7535 0.855161,-0.92897 1.629306,-1.97317 2.275239,-3.11963 0.311175,-0.55229 0.587956,-1.12006 0.828057,-1.70065 0.680305,-1.6521 1.049251,-3.37549 1.150574,-5.06066 0.204457,-3.50258 -0.672887,-6.73621 -1.901041,-9.35977 -1.274355,-2.73639 -3.084494,-4.71694 -4.837276,-6.01683 -1.623076,-1.19573 -3.361132,-1.98986 -4.302854,-2.38336 -0.921524,-0.38505 -1.49456,-0.56601 -1.655286,-0.54006 z" />
    <path
       style="fill:url(#linearGradient47);fill-opacity:1;stroke:none;stroke-width:0.264583"
       d="m 558.32665,-47.040349 c 0.01,0.865205 43.42095,-0.06491 117.00805,2.365131 30.9028,1.022017 71.53362,3.01114 112.39821,9.157881 29.85181,4.502083 63.54436,11.501283 94.97949,25.428577 12.76424,5.6519484 25.40861,12.5914936 36.95526,21.299681 10.45528,7.884196 20.10735,17.312317 27.95602,28.257834 8.4355,11.719264 14.75083,25.121282 20.01963,39.360046 6.04875,16.389265 10.45369,33.596599 13.87375,51.448459 3.70743,19.37237 6.14645,39.23799 7.60761,59.57118 1.50238,20.92418 1.93885,42.18402 1.35383,63.71898 0,0 -0.001,0.0529 -0.001,0.0529 -1.18658,43.2913 -6.15545,84.95663 -15.84448,124.57413 -4.51289,18.44685 -10.00304,36.16906 -17.02734,53.00461 -6.28309,15.03526 -13.60448,29.13017 -22.8636,41.58115 -8.64242,11.64677 -18.80277,21.86115 -29.77799,30.54293 -11.6659,9.23121 -24.32651,16.8075 -37.17002,23.04006 -30.36203,14.74659 -62.93913,22.6932 -92.01351,27.77127 -38.98663,6.79595 -77.77591,9.19232 -107.3722,10.46769 -70.95881,3.05353 -112.72032,2.25336 -112.72532,3.10182 -0.005,0.84846 41.6465,3.22673 112.87998,1.46616 29.77184,-0.73399 68.66432,-2.58386 108.23027,-9.02694 29.45876,-4.78719 62.64515,-12.5888 94.01856,-27.49775 13.27622,-6.31447 26.42511,-14.07228 38.64224,-23.6084 11.4988,-8.97834 22.17091,-19.59519 31.30384,-31.7674 9.7824,-13.06468 17.48205,-27.67223 23.96439,-43.08712 7.27203,-17.26635 12.94928,-35.36148 17.57678,-54.10391 9.93621,-40.23121 15.0415,-82.46889 16.2285,-126.23883 0,0 0.001,-0.0536 0.001,-0.0536 0.59278,-21.78948 0.13627,-43.31675 -1.41201,-64.51662 -1.50309,-20.59756 -4.0219,-40.77184 -7.84285,-60.48638 C 985.75791,110.6243 981.18029,93.011477 974.89364,76.139884 969.44866,61.490257 962.74308,47.501256 953.74008,35.054994 945.31595,23.450372 935.08716,13.547112 924.05955,5.3454827 911.89635,-3.6996353 898.73592,-10.827043 885.54119,-16.546429 853.07681,-30.61025 818.80695,-37.445591 788.62083,-41.644262 c -41.41374,-5.776724 -82.09931,-7.207144 -113.17425,-7.676968 -73.82696,-1.119981 -117.12987,1.415677 -117.11993,2.280881 z"
       id="path8"
       transform="matrix(0.13297827,0,0,0.13621917,45.152659,-188.93629)" />
    <path
       style="fill:#000000;stroke:none;stroke-width:0.264583"
       d="m 559.64867,-17.955671 c -0.0632,0.996476 24.70596,2.329415 66.7251,8.2095706 17.33151,2.4290598 39.9265,6.2400246 62.05857,13.5785847 17.40949,5.7776754 36.26108,14.3394947 52.95539,27.2801557 15.78221,12.191955 29.7135,28.519393 40.24,48.120707 0,1.2e-5 0,1.9e-5 10e-6,2.7e-5 11.80652,21.947986 19.41602,46.679386 24.82252,73.667476 5.66863,28.42742 8.38707,58.24333 8.4523,89.23682 0.006,3.45301 -0.0206,6.91597 -0.082,10.38761 -0.49057,27.70518 -3.1579,54.54642 -8.03523,80.31354 -5.38065,28.3307 -13.08017,54.48193 -24.6481,78.08719 -10.64555,21.75332 -24.59914,40.39899 -40.40951,55.3197 0,0 -2e-5,2e-5 -2e-5,2e-5 -16.67781,15.76827 -35.5221,27.60332 -53.2343,36.4882 -21.99281,11.02949 -44.66237,18.75349 -62.24193,24.21035 -41.81936,12.97454 -66.83319,18.61821 -66.60274,19.60721 0.23045,0.989 25.5119,-2.76447 68.14058,-14.31107 17.97515,-4.86608 41.06245,-12.01231 63.94898,-22.84579 18.41341,-8.71429 38.11573,-20.60545 55.85314,-36.84396 0,0 2e-5,-2e-5 2e-5,-2e-5 16.79762,-15.40543 31.66759,-34.74782 43.02351,-57.42673 12.24621,-24.48774 20.43829,-51.45952 26.0239,-80.39829 5.10152,-26.34574 7.8937,-53.76747 8.39129,-82.02006 0.0623,-3.54025 0.0883,-7.07085 0.0791,-10.59051 -0.0734,-31.58689 -2.95781,-62.07253 -8.92033,-91.18287 -5.62807,-27.59847 -13.80286,-53.216688 -26.38654,-76.142027 -10e-6,-8e-6 -2e-5,-1.6e-5 -2e-5,-2.5e-5 C 778.46433,54.164931 763.45493,37.086557 746.50609,24.383275 728.55973,10.976401 708.76887,2.4193201 690.64251,-3.1122498 667.5908,-10.152704 644.65141,-13.342118 627.02655,-15.141415 c -42.60593,-4.358597 -67.31469,-3.810732 -67.37788,-2.814256 z"
       id="path10"
       transform="matrix(0.13450189,0,0,0.13881256,44.302837,-189.50665)" />
    <path
       style="fill:#000000;stroke-width:0.0327413"
       id="path17"
       d="m 55.096643,-197.69866 c -3.48e-4,0.33277 0.01729,0.66456 0.04952,0.99613 0.04781,0.49764 0.126026,0.99248 0.19175,1.48849 0.06471,0.52577 0.143178,1.05013 0.206466,1.57605 0.05158,0.52218 0.118885,1.04303 0.179468,1.56448 0.04806,0.42175 0.08917,0.84405 0.126193,1.26661 0.02533,0.28753 0.04732,0.57525 0.06535,0.86319 0.01011,0.18074 0.0054,0.0901 0.01437,0.2717 0,0 1.297533,0.56061 1.297533,0.56061 v 0 c -0.0084,-0.18227 -0.004,-0.0913 -0.01345,-0.27285 -0.01725,-0.28971 -0.03985,-0.57915 -0.0686,-0.8682 -0.04052,-0.42459 -0.08394,-0.84897 -0.133726,-1.27284 -0.06165,-0.52153 -0.129922,-1.04246 -0.179674,-1.56495 -0.06345,-0.52615 -0.141635,-1.05079 -0.205589,-1.57685 -0.06363,-0.49461 -0.144272,-0.98758 -0.189558,-1.48382 -0.03257,-0.32542 -0.05194,-0.65163 -0.03538,-0.97827 z" />
    <path
       id="path18"
       style="fill:#000000;stroke-width:0.0314343"
       d="m 55.705607,-116.64329 c 0.04154,0.23592 0.09548,0.47044 0.158074,0.70342 0.06621,0.23486 0.121015,0.47148 0.194083,0.70509 0.06009,0.18637 0.105587,0.37532 0.151352,0.56415 0.0056,0.0182 0.0099,0.0368 0.01358,0.0556 0.0086,0.0353 0.01714,0.0706 0.02595,0.10583 0.07634,0.29728 0.118471,0.59885 0.172451,0.89887 0.0621,0.30981 0.112696,0.6208 0.180571,0.92988 0.0583,0.28609 0.119509,0.57135 0.19395,0.85512 0.06363,0.23659 0.110473,0.47558 0.174514,0.71209 0.04344,0.15618 0.08025,0.31342 0.11448,0.47098 0.02112,0.0408 0.04001,0.0871 0.05551,0.14018 4.28e-4,0.001 8.43e-4,0.003 0.0013,0.004 0.0032,0.0109 0.0037,0.013 0.0033,0.0131 -4.67e-4,-0.002 -0.0013,-0.005 0.01178,0.0271 0.02176,0.0647 0.03418,0.1316 0.03048,0.20036 -1.3e-5,0.0374 -4e-6,0.0748 -1.33e-4,0.11213 -4.9e-5,0.0119 -2e-4,0.0237 -2.68e-4,0.0355 0.0062,0.0387 0.01278,0.0774 0.01864,0.11622 0.01964,0.12369 0.03153,0.24796 0.04299,0.37225 0.01534,0.1167 0.05302,0.23077 0.08706,0.34478 0.01893,0.0634 0.01011,0.0318 0.02662,0.095 l 1.316979,0.5048 c -0.01559,-0.0657 -0.0077,-0.0326 -0.02376,-0.0996 -0.03441,-0.10899 -0.06733,-0.21818 -0.09964,-0.32755 -0.0096,-0.12632 -0.02286,-0.25255 -0.04,-0.37837 -0.02524,-0.15846 -0.04975,-0.31697 -0.08313,-0.47453 -0.04398,-0.2201 -0.09261,-0.43957 -0.152817,-0.65731 -0.06518,-0.23655 -0.116241,-0.47483 -0.176245,-0.71225 -0.07759,-0.28276 -0.144641,-0.56642 -0.199008,-0.85261 -0.06949,-0.30815 -0.121967,-0.61798 -0.182901,-0.92726 -0.05787,-0.30054 -0.0925,-0.60397 -0.167593,-0.90252 -0.05734,-0.24392 -0.11135,-0.48851 -0.183965,-0.72995 -0.07431,-0.23297 -0.135116,-0.46795 -0.198276,-0.703 -0.06474,-0.22797 -0.120191,-0.45808 -0.153948,-0.69016 z" />
    <path
       style="fill:#000000;stroke-width:0.0269041"
       id="path19"
       d="m 71.329708,-153.5511 c 0.0066,0.21267 0.0074,0.4254 0.0083,0.6381 0.0013,0.28053 4.01e-4,0.56107 -2.68e-4,0.84161 -0.0058,0.2482 0.0299,0.49588 0.05666,0.7434 0.02254,0.20016 0.03272,0.40054 0.07346,0.59982 0.03288,0.14296 0.06738,0.28578 0.09928,0.42882 0.02371,0.0991 0.0352,0.19879 0.07214,0.29658 0.03669,0.0812 0.07326,0.16247 0.102178,0.24478 0.004,0.0123 0.0081,0.0246 0.01207,0.0369 0,0 1.31604,0.37034 1.31604,0.37034 v 0 c -0.004,-0.0125 -0.008,-0.0251 -0.01198,-0.0376 -0.02705,-0.0837 -0.0578,-0.16711 -0.100071,-0.24876 -0.04521,-0.0949 -0.06169,-0.19121 -0.08128,-0.28892 -0.03406,-0.14333 -0.06796,-0.28666 -0.105016,-0.42973 -0.04527,-0.1981 -0.0614,-0.39708 -0.08135,-0.59653 -0.02913,-0.24618 -0.06615,-0.49263 -0.06428,-0.73951 -5.34e-4,-0.28057 -0.0015,-0.56116 -2.66e-4,-0.84173 8.02e-4,-0.21108 0.0016,-0.4222 0.0083,-0.63325 z" />
    <path
       style="fill:#000000;stroke-width:0.0370533"
       id="path20"
       d="m 118.21768,-196.87159 c 0.012,0.2673 0.0118,0.53467 0.0137,0.80201 0.0217,0.36941 0.0696,0.73832 0.14352,1.10637 0.0615,0.34132 0.15364,0.68134 0.27688,1.01936 0.10514,0.29716 0.25932,0.59012 0.39466,0.88471 0.14082,0.2711 0.27269,0.54308 0.4207,0.81344 0.12495,0.24605 0.25018,0.49183 0.38865,0.73647 0.0596,0.10748 0.11472,0.2153 0.1761,0.32257 0,0 2.06751,0.43578 2.06751,0.43578 v 0 c -0.0688,-0.10649 -0.12273,-0.21385 -0.17948,-0.32165 -0.1421,-0.2445 -0.27543,-0.48958 -0.39409,-0.73653 -0.14889,-0.26942 -0.28084,-0.54041 -0.42639,-0.8102 -0.1331,-0.29432 -0.29294,-0.58618 -0.40161,-0.88259 -0.13291,-0.33564 -0.22533,-0.67424 -0.29009,-1.01375 -0.0768,-0.36508 -0.12568,-0.73093 -0.1495,-1.09749 0.002,-0.26529 0.002,-0.53061 0.0136,-0.79585 z" />
    <path
       style="fill:#000000;stroke-width:0.0294622"
       id="path21"
       d="m 119.14242,-115.32753 c 0.005,0.19265 0.005,0.38535 0.005,0.57801 0.002,0.28816 0.003,0.57631 0.003,0.86446 0.003,0.34813 0.005,0.69592 -0.0177,1.04376 -0.0282,0.34572 -0.0531,0.69155 -0.0773,1.0374 -0.0167,0.24441 -0.0334,0.48884 -0.0475,0.73332 -0.002,0.0311 -0.003,0.062 -0.005,0.0931 0,0 1.3426,0.4448 1.3426,0.4448 v 0 c 0.001,-0.0311 0.003,-0.0622 0.004,-0.0933 0.0118,-0.24521 0.0236,-0.49042 0.0382,-0.73557 0.0205,-0.34624 0.0452,-0.69235 0.0734,-1.03836 0.0248,-0.34862 0.0284,-0.69721 0.0249,-1.0462 0,-0.2875 0.001,-0.575 0.003,-0.86251 5.3e-4,-0.1914 3.9e-4,-0.38283 0.005,-0.57421 z" />
    <path
       style="fill:#2c2c2c;fill-opacity:1;stroke-width:0.179221"
       d="m 57.638368,-111.4833 c -0.266594,-1.32461 -0.542266,-3.08702 -0.543514,-3.47478 -7.68e-4,-0.23866 0.144127,-0.31801 0.58077,-0.31801 1.891847,0 8.548741,-1.20724 11.525907,-2.09026 7.857378,-2.33045 12.782263,-6.79604 14.429217,-13.08352 0.568789,-2.17143 0.534659,-5.89232 -0.07584,-8.26835 -1.537208,-5.98277 -4.77745,-9.86633 -10.101318,-12.10685 -0.780217,-0.32835 -1.444267,-0.67625 -1.47567,-0.7731 -0.0314,-0.0969 0.663022,-0.55847 1.543164,-1.02583 3.919833,-2.0814 7.439648,-5.03 9.196209,-7.7038 1.62329,-2.47093 3.011812,-6.02336 3.55743,-9.10145 0.327328,-1.84658 0.282507,-5.47968 -0.08827,-7.15824 -1.159936,-5.25076 -4.742925,-9.67891 -9.717412,-12.00956 -4.163138,-1.95052 -10.546607,-3.11343 -17.544809,-3.19624 l -2.146615,-0.0254 -0.112485,-1.2078 c -0.06187,-0.6643 -0.156783,-1.51446 -0.210923,-1.88926 l -0.09844,-0.68147 h 11.519756 c 12.120735,0 16.429986,0.1482 21.652839,0.74465 8.803385,1.00533 14.594656,2.96173 18.656156,6.30239 4.34358,3.57265 6.75355,9.0339 6.47313,14.66874 -0.26909,5.40711 -2.63388,9.54136 -7.23938,12.65623 -2.14851,1.45313 -3.45678,2.12457 -7.35604,3.77535 -3.448098,1.45978 -4.074048,1.90807 -3.818806,2.73486 0.167975,0.54412 0.82219,0.79108 3.625087,1.36844 9.979429,2.0556 14.493139,5.41704 16.104649,11.99337 0.52829,2.1559 0.56902,6.1308 0.0864,8.44052 -1.04558,5.00471 -3.14224,8.95053 -6.56474,12.35453 -4.7319,4.70634 -11.621989,7.36795 -22.595827,8.72868 -5.56882,0.69053 -11.196416,0.98997 -22.585474,1.20178 l -6.478753,0.12049 z"
       id="path22" />
    <path
       style="fill:url(#linearGradient42);fill-opacity:1;stroke-width:0.179805"
       d="m 119.98755,-112.08659 c 0.001,-0.37481 0.0503,-0.98025 0.10945,-1.34542 0.10009,-0.61788 0.15994,-0.672 0.86311,-0.7797 2.91485,-0.44648 10.38776,-2.5006 13.25831,-3.64438 8.11155,-3.23211 13.36792,-7.98101 16.60907,-15.00559 2.04666,-4.43573 3.3789,-9.79628 4.06137,-16.34164 0.32619,-3.12826 0.27238,-10.80271 -0.0982,-13.99259 -1.10684,-9.53018 -3.72314,-16.3572 -7.9407,-20.72061 -5.07939,-5.25507 -12.37288,-7.52079 -25.88527,-8.04124 l -1.06678,-0.0411 -0.21477,-1.1812 c -0.11813,-0.64966 -0.21851,-1.44695 -0.22307,-1.77178 l -0.009,-0.5906 4.04747,0.003 c 4.83972,0.003 14.06844,0.28764 17.65761,0.54398 17.23471,1.23086 26.77407,5.07661 31.15537,12.56014 3.33398,5.69462 5.18458,16.11939 4.89937,27.59882 -0.16252,6.54035 -0.6346,10.73743 -1.82616,16.23563 -1.13477,5.23605 -3.10492,10.4575 -5.04932,13.3821 -4.79975,7.21937 -13.51218,11.28964 -27.40016,12.80078 -4.91108,0.53436 -14.58782,1.01236 -20.50417,1.01285 l -2.44627,4.1e-4 z"
       id="path23" />
    <path
       id="path6"
       style="fill:url(#linearGradient44);fill-opacity:1;stroke:none;stroke-width:0.0369028"
       d="m 73.713215,-196.25298 c -2.491962,0.001 -4.809469,0.0451 -6.818578,0.097 -5.275288,0.13612 -9.065762,0.31049 -11.642222,0.46668 0.01165,0.0634 0.0137,0.12809 0.01531,0.19245 0.001,0.0479 0.0013,0.0957 0.0015,0.1435 7.21e-4,-0.003 0.0025,0.001 0.0047,0.0109 2.56072,-0.0238 6.080093,-0.0668 11.632436,-0.0916 3.991799,-0.0178 9.267787,-5.4e-4 14.619351,0.30721 3.906909,0.22516 8.334695,0.61339 12.739624,1.49557 3.278729,0.65935 6.771744,1.60953 9.906454,3.28557 2.42997,1.29667 4.69011,3.09312 6.41756,5.35466 1.47959,1.93354 2.57747,4.20761 3.14254,6.64717 0.51315,2.21597 0.59461,4.57047 0.16772,6.87301 -0.39382,2.1164 -1.21569,4.2006 -2.51335,5.99428 -1.2198,1.69806 -2.86927,3.13001 -4.71436,4.35222 -1.70033,1.12355 -3.55973,2.05378 -5.50619,2.88215 -0.81797,0.34762 -1.650388,0.6751 -2.494715,0.99466 v 6e-5 c -0.668073,0.25281 -1.3488,0.50013 -2.033602,0.76327 -0.258026,0.0991 -0.521116,0.20245 -0.78612,0.31582 h -6.5e-5 c -0.19582,0.0829 -0.405133,0.17786 -0.620445,0.29637 h -1.29e-4 c -0.128401,0.0592 -0.306288,0.17572 -0.503249,0.37505 -0.073,0.0649 -0.147784,0.19062 -0.214054,0.37802 -0.05107,0.18646 -0.03548,0.37722 0.04677,0.56478 0.102996,0.18362 0.202884,0.29922 0.288936,0.34948 0.111758,0.0815 0.208604,0.13616 0.285732,0.16871 0.226311,0.10137 0.433183,0.1639 0.609996,0.20848 0.584343,0.15526 1.156495,0.2569 1.705479,0.3588 -0.102458,-0.0192 0.575678,0.10791 0.473155,0.0887 1.5791,0.29707 3.124291,0.5988 4.631631,0.99703 2.08448,0.55179 4.08985,1.25227 5.91738,2.22766 1.93795,1.03751 3.66815,2.38139 4.88268,4.05731 1.36778,1.86319 2.12321,4.11278 2.45778,6.36508 0.38427,2.61886 0.18738,5.28 -0.41705,7.79025 -0.6847,2.83591 -1.90637,5.49092 -3.52503,7.80478 -1.84198,2.63395 -4.20706,4.81734 -6.82065,6.44618 -3.19336,1.9956 -6.804294,3.23654 -10.225067,4.11201 -4.471682,1.14128 -8.99383,1.72503 -12.996207,2.09846 -5.428383,0.50569 -10.78073,0.67146 -14.841519,0.75909 -5.31847,0.11467 -7.373667,0.13122 -9.864995,0.16573 0.0063,0.0173 0.01225,0.0354 0.01777,0.0544 4.26e-4,0.001 8.37e-4,0.003 0.0013,0.004 0.0032,0.0109 0.0037,0.013 0.0033,0.0131 -4.64e-4,-0.002 -0.0013,-0.005 0.01178,0.0271 0.02176,0.0647 0.03418,0.1316 0.03048,0.20036 -1.3e-5,0.0374 -4e-6,0.0748 -1.29e-4,0.11213 -3.7e-5,0.009 -1.54e-4,0.0184 -2.06e-4,0.0277 2.488817,0.0692 5.588716,0.12307 9.809219,0.12143 4.088296,-10e-4 9.427249,-0.0772 14.923387,-0.51514 4.039148,-0.32129 8.619761,-0.86107 13.198803,-1.98065 3.502772,-0.85404 7.237724,-2.10901 10.615374,-4.17443 2.76743,-1.69675 5.27495,-3.97973 7.23909,-6.75227 1.72314,-2.43312 3.02714,-5.2265 3.76463,-8.2207 0.65384,-2.64778 0.87099,-5.47149 0.47244,-8.28061 -0.33919,-2.41936 -1.16699,-4.86932 -2.68295,-6.96902 -1.3758,-1.88379 -3.26391,-3.37152 -5.35524,-4.48247 -1.96075,-1.04455 -4.07215,-1.78908 -6.2332,-2.35811 -1.56983,-0.41417 -3.150362,-0.7245 -4.736783,-1.02244 -0.03483,-0.007 -0.439698,-0.0823 -0.474553,-0.0888 -0.32692,-0.0616 -0.623381,-0.13075 -0.931346,-0.19467 0.12654,-0.0507 0.249651,-0.10246 0.379578,-0.1526 0.667643,-0.25711 1.345941,-0.50408 2.026023,-0.76208 0.856231,-0.32478 1.706681,-0.66053 2.548701,-1.01938 2.00258,-0.85235 3.93859,-1.82786 5.73414,-3.01613 1.95333,-1.28966 3.72111,-2.84404 5.06764,-4.71366 1.41938,-1.98356 2.30825,-4.24931 2.72049,-6.53887 0.4497,-2.48905 0.35118,-5.01732 -0.21299,-7.39459 -0.62157,-2.61988 -1.81217,-5.04859 -3.41255,-7.11371 -1.87374,-2.41385 -4.28698,-4.30783 -6.87175,-5.65874 -3.32142,-1.73254 -6.931588,-2.68789 -10.279587,-3.32022 -4.501893,-0.85394 -8.979381,-1.19579 -12.91667,-1.36838 -2.706902,-0.11902 -5.373374,-0.16056 -7.865332,-0.15934 z m -19.188543,0.80145 c 6.7e-4,9.4e-4 0.0013,0.002 0.0019,0.002 0.0024,0.003 0.0144,0.005 0.01091,0.003 -0.0052,-0.002 -0.008,-0.004 -0.01285,-0.007 z" />
  </g>
</svg>
